# xmcd
#
# Track frame offsets: 
#        150
#        12300
#        24853
#        36460
#        45948
#        59777
#        70280
#        81571
#        94832
#        105625
#        118193
#        129474
#        140898
#        151572
#        159417
#        172347
#        182377
#        195401
#        205676
#        220327
#
# Disc length: 3089 seconds
#
# Revision: 1
# Processed by: cddbd v1.5.2PL0 Copyright (c) Steve Scherf et al.
# Submitted via: ExactAudioCopy v0.99pb5
#
DISCID=1b0c0f14
DTITLE=Doc and Merle Watson - Black Mountain Rag
DYEAR=2006
DGENRE=Country
TTITLE0=Black Mountain Rag
TTITLE1=Smoke, Smoke, Smoke
TTITLE2=Black Pine Waltz
TTITLE3=Red Rocking Chair
TTITLE4=Twinkle, Twinkle
TTITLE5=Below Freezing
TTITLE6=Mole in the Ground
TTITLE7=Liza/Lady Be Good
TTITLE8=Down Yonder
TTITLE9=Cotton Row
TTITLE10=Sadie
TTITLE11=Leaving London
TTITLE12=Guitar Polka
TTITLE13=Fisher's Hornpipe - Devil's Dream
TTITLE14=Along the Road
TTITLE15=Bye Bye Bluebelle - Smiles
TTITLE16=Sheeps in the Meadow - Stony Folk
TTITLE17=Take Me Out to the Ballgame
TTITLE18=Blackberry Blossom (Doc, Tony Rice, Norman Blake)
TTITLE19=Gonna Lay Down My Old Guitar
EXTD=
EXTT0=
EXTT1=
EXTT2=
EXTT3=
EXTT4=
EXTT5=
EXTT6=
EXTT7=
EXTT8=
EXTT9=
EXTT10=
EXTT11=
EXTT12=
EXTT13=
EXTT14=
EXTT15=
EXTT16=
EXTT17=
EXTT18=
EXTT19=
PLAYORDER=
